<svg width="24" height="24" viewBox="0 0 24 24" fill="none" xmlns="http://www.w3.org/2000/svg">
<g id="vuesax/outline/arrow-right">
<g id="vuesax/outline/arrow-right_2">
<g id="arrow-right">
<path id="Vector" d="M9.57 5.18001C9.76 5.18001 9.95 5.25 10.1 5.4C10.39 5.69 10.39 6.17 10.1 6.46L4.56 12L10.1 17.54C10.39 17.83 10.39 18.31 10.1 18.6C9.81 18.89 9.33 18.89 9.04 18.6L2.97 12.53C2.68 12.24 2.68 11.76 2.97 11.47L9.04 5.4C9.19 5.25 9.38 5.18001 9.57 5.18001Z" fill="#F1EEE3"/>
<path id="Vector_2" d="M3.67 11.25L20.5 11.25C20.91 11.25 21.25 11.59 21.25 12C21.25 12.41 20.91 12.75 20.5 12.75L3.67 12.75C3.26 12.75 2.92 12.41 2.92 12C2.92 11.59 3.26 11.25 3.67 11.25Z" fill="#F1EEE3"/>
</g>
</g>
</g>
</svg>
