<svg width="24" height="25" viewBox="0 0 24 25" fill="none" xmlns="http://www.w3.org/2000/svg">
<g id="backward-10-seconds">
<g id="vuesax/bold/backward-10-seconds">
<g id="backward-10-seconds_2">
<path id="Vector" d="M9.54004 17.17C9.13004 17.17 8.79004 16.83 8.79004 16.42V13.03L8.60004 13.25C8.32004 13.56 7.85004 13.58 7.54004 13.31C7.23004 13.03 7.21004 12.56 7.48004 12.25L8.98004 10.58C9.19004 10.35 9.52004 10.27 9.81004 10.38C10.1 10.49 10.29 10.77 10.29 11.08V16.43C10.29 16.84 9.96004 17.17 9.54004 17.17Z" fill="#F1EEE3"/>
<path id="Vector_2" d="M12 3.97998C11.92 3.97998 11.84 3.98998 11.76 3.98998L12.58 2.96998C12.84 2.64998 12.79 2.16998 12.46 1.91998C12.14 1.65998 11.67 1.70998 11.41 2.03998L9.43999 4.49998C9.42999 4.50998 9.43 4.51998 9.42 4.53998C9.39 4.57998 9.37 4.62998 9.35 4.66998C9.33 4.71998 9.31 4.75998 9.3 4.79998C9.29 4.84998 9.29 4.88998 9.29 4.93998C9.29 4.98998 9.29 5.03998 9.29 5.08998C9.29 5.10998 9.29 5.11998 9.29 5.13998C9.3 5.16998 9.31999 5.18998 9.33 5.22998C9.35 5.27998 9.36 5.31998 9.39 5.35998C9.42 5.39998 9.45 5.43998 9.49 5.47998C9.50999 5.49998 9.53 5.52998 9.55 5.54998C9.56 5.55998 9.58 5.55998 9.59 5.56998C9.62 5.58998 9.64999 5.60998 9.68999 5.61998C9.74 5.64998 9.79 5.66998 9.84 5.67998C9.88 5.69998 9.91 5.69998 9.95 5.69998C9.98 5.69998 9.99999 5.70998 10.03 5.70998C10.05 5.70998 10.08 5.69998 10.1 5.68998C10.13 5.68998 10.16 5.68998 10.2 5.68998C10.84 5.53998 11.44 5.46998 12.01 5.46998C16.5 5.46998 20.15 9.11998 20.15 13.61C20.15 18.1 16.5 21.75 12.01 21.75C7.52 21.75 3.87 18.1 3.87 13.61C3.87 11.87 4.44 10.19 5.52 8.74998C5.77 8.41998 5.7 7.94998 5.37 7.69998C5.04 7.44998 4.57 7.51998 4.32 7.84998C3.04 9.54998 2.37 11.54 2.37 13.61C2.37 18.92 6.69 23.25 12.01 23.25C17.33 23.25 21.65 18.93 21.65 13.61C21.65 8.28998 17.31 3.97998 12 3.97998Z" fill="#F1EEE3"/>
<path id="Vector_3" d="M14 17.17C12.48 17.17 11.25 15.94 11.25 14.42V13.07C11.25 11.55 12.48 10.32 14 10.32C15.52 10.32 16.75 11.55 16.75 13.07V14.42C16.75 15.94 15.52 17.17 14 17.17ZM14 11.83C13.31 11.83 12.75 12.39 12.75 13.08V14.43C12.75 15.12 13.31 15.68 14 15.68C14.69 15.68 15.25 15.12 15.25 14.43V13.08C15.25 12.39 14.69 11.83 14 11.83Z" fill="#F1EEE3"/>
</g>
</g>
</g>
</svg>
