<svg width="20" height="20" viewBox="0 0 20 20" fill="none" xmlns="http://www.w3.org/2000/svg">
<g id="Outline / Notifications / Bell ">
<rect width="20" height="20" rx="5" fill="#191815"/>
<path id="Vector" fill-rule="evenodd" clip-rule="evenodd" d="M10.0001 1.04167C6.43321 1.04167 3.54172 3.93317 3.54172 7.50001V8.08676C3.54172 8.66753 3.36981 9.2353 3.04766 9.71853L2.09049 11.1543C0.979577 12.8207 1.82767 15.0857 3.75983 15.6126C4.3895 15.7843 5.0245 15.9296 5.66317 16.0484L5.66475 16.0527C6.30558 17.7626 8.01834 18.9583 10 18.9583C11.9817 18.9583 13.6944 17.7626 14.3352 16.0527L14.3368 16.0484C14.9755 15.9296 15.6106 15.7844 16.2403 15.6126C18.1724 15.0857 19.0205 12.8207 17.9096 11.1543L16.9524 9.71853C16.6303 9.2353 16.4584 8.66753 16.4584 8.08676V7.50001C16.4584 3.93317 13.5669 1.04167 10.0001 1.04167ZM12.8137 16.2808C10.9446 16.5041 9.05539 16.5041 7.18626 16.2808C7.77872 17.1321 8.8092 17.7083 10 17.7083C11.1908 17.7083 12.2213 17.1321 12.8137 16.2808ZM4.79172 7.50001C4.79172 4.62352 7.12357 2.29167 10.0001 2.29167C12.8765 2.29167 15.2084 4.62352 15.2084 7.50001V8.08676C15.2084 8.91431 15.4533 9.72334 15.9124 10.4119L16.8696 11.8477C17.5072 12.8041 17.0204 14.1042 15.9114 14.4067C12.0412 15.4622 7.95893 15.4622 4.08872 14.4067C2.9797 14.1042 2.49291 12.8041 3.13055 11.8477L4.08772 10.4119C4.54676 9.72334 4.79172 8.91431 4.79172 8.08676V7.50001Z" fill="#F1EEE3"/>
</g>
</svg>
