<svg width="24" height="25" viewBox="0 0 24 25" fill="none" xmlns="http://www.w3.org/2000/svg">
<g id="forward-10-seconds">
<g id="vuesax/linear/forward-10-seconds">
<g id="forward-10-seconds_2">
<path id="Vector" d="M13.98 4.96997L12 2.5" stroke="#F1EEE3" stroke-width="1.5" stroke-linecap="round" stroke-linejoin="round"/>
<path id="Vector_2" d="M19.09 8.29999C20.2 9.77999 20.89 11.61 20.89 13.61C20.89 18.52 16.91 22.5 12 22.5C7.09 22.5 3.10999 18.52 3.10999 13.61C3.10999 8.69999 7.09 4.71997 12 4.71997C12.68 4.71997 13.34 4.81002 13.98 4.96002" stroke="#F1EEE3" stroke-width="1.5" stroke-linecap="round" stroke-linejoin="round"/>
<g id="Group">
<path id="Vector_3" d="M9.54004 16.42V11.08L8.04004 12.75" stroke="#F1EEE3" stroke-width="1.5" stroke-linecap="round" stroke-linejoin="round"/>
<path id="Vector_4" d="M14 11.08C15.1 11.08 16 11.98 16 13.08V14.43C16 15.53 15.1 16.43 14 16.43C12.9 16.43 12 15.53 12 14.43V13.08C12 11.97 12.9 11.08 14 11.08Z" stroke="#F1EEE3" stroke-width="1.5" stroke-linecap="round" stroke-linejoin="round"/>
</g>
</g>
</g>
</g>
</svg>
