<svg width="25" height="25" viewBox="0 0 25 25" fill="none" xmlns="http://www.w3.org/2000/svg">
<g id="vuesax/linear/frame">
<g id="frame">
<path id="Vector" d="M9.75 9.54999C11.53 10.2 13.47 10.2 15.25 9.54999" stroke="#F1EEE3" stroke-width="1.5" stroke-linecap="round" stroke-linejoin="round"/>
<path id="Vector_2" d="M17.32 2.5H7.68001C5.55001 2.5 3.82001 4.24 3.82001 6.36V20.45C3.82001 22.25 5.11001 23.01 6.69001 22.14L11.57 19.43C12.09 19.14 12.93 19.14 13.44 19.43L18.32 22.14C19.9 23.02 21.19 22.26 21.19 20.45V6.36C21.18 4.24 19.45 2.5 17.32 2.5Z" stroke="#F1EEE3" stroke-width="1.5" stroke-linecap="round" stroke-linejoin="round"/>
<path id="Vector_3" d="M17.32 2.5H7.68001C5.55001 2.5 3.82001 4.24 3.82001 6.36V20.45C3.82001 22.25 5.11001 23.01 6.69001 22.14L11.57 19.43C12.09 19.14 12.93 19.14 13.44 19.43L18.32 22.14C19.9 23.02 21.19 22.26 21.19 20.45V6.36C21.18 4.24 19.45 2.5 17.32 2.5Z" stroke="#F1EEE3" stroke-width="1.5" stroke-linecap="round" stroke-linejoin="round"/>
</g>
</g>
</svg>
